# xmcd
#
# Track frame offsets:
#	150
#	10204
#	21712
#	31448
#	43031
#	54037
#	65065
#	77247
#	87985
#	100600
#	113067
#	122905
#	133439
#	144540
#	153480
#	163264
#	173125
#	183086
#	194138
#	204056
#	215306
#	226103
#	238596
#	251318
#	260746
#	272125
#	283626
#
# Disc length: 3929 seconds
#
# Revision: 1
# Processed by: cddbd v1.5.2PL0 Copyright (c) Steve Scherf et al.
# Submitted via: audiograbber 1.83.01
#
DISCID=870f571b
DTITLE=Arthur "Guitar Boogie" Smith with The Crackerjacks - BACM CD D 341
DYEAR=2011
DGENRE=Country
TTITLE0=Oh Baby Mine (I Get So Lonely)
TTITLE1=I'm Richer Than You
TTITLE2=The Gal With The Yaller Shoes
TTITLE3=I Thought It Couldn't Happen To Me
TTITLE4=The Honeymoon Is Over
TTITLE5=Cotton Patch Rag (Instr.)
TTITLE6=More Foolish Questions
TTITLE7=You're Off Limits
TTITLE8=Five Foot Two Eyes Of Blue (Instr.)
TTITLE9=If You Love Me Let Me Know It
TTITLE10=Texas Hop (Instr.)
TTITLE11=The Red Headed Stranger
TTITLE12=Alabama Jubilee (Instr.)
TTITLE13=Feudin' Banjos (Instr.)
TTITLE14=Truck Stop  Grill
TTITLE15=Lonesome
TTITLE16=Half Moon (Instr.)
TTITLE17=Three D Boogie (Instr.)
TTITLE18=Blue Rock (Instr.)
TTITLE19=Buzz Saw (Instr.)
TTITLE20=Outboard (Instr.)
TTITLE21=Banjo Buster (Instr.)
TTITLE22=Freeze It Boogie (Instr.)
TTITLE23=Two Stamps Calypso (Instr.)
TTITLE24=Stamps
TTITLE25=Rockin' The News
TTITLE26=Guitar Bustin' (Instr.)
EXTD=
EXTT0=
EXTT1=
EXTT2=
EXTT3=
EXTT4=
EXTT5=
EXTT6=
EXTT7=
EXTT8=
EXTT9=
EXTT10=
EXTT11=
EXTT12=
EXTT13=
EXTT14=
EXTT15=
EXTT16=
EXTT17=
EXTT18=
EXTT19=
EXTT20=
EXTT21=
EXTT22=
EXTT23=
EXTT24=
EXTT25=
EXTT26=
PLAYORDER=
